<?xml version="1.0" encoding="utf-8"?>
<!-- Generator: Adobe Illustrator 27.5.0, SVG Export Plug-In . SVG Version: 6.00 Build 0)  -->
<svg version="1.1" id="Layer_1" xmlns="http://www.w3.org/2000/svg" xmlns:xlink="http://www.w3.org/1999/xlink" x="0px" y="0px"
	 viewBox="0 0 425.2 425.2" style="enable-background:new 0 0 425.2 425.2;" xml:space="preserve">
<rect x="0" style="fill:#FFFFFF;" width="425.2" height="425.2"/>
<g>
	<path style="fill:#5C2849;" d="M330.339,273.544c15.324-12.331,27.993-28.466,27.859-49.011
		c-0.174-26.785-27.92-36.181-50.55-32.379c-0.706-4.552-2.349-8.679-6.64-11.782c-6.057-4.375-14.012-5.77-21.22-6.927
		c-24.451-3.915-49.998-2.88-74.699-0.565c-2.552-11.613-9.188-20.785-15.525-31.71c-3.576-6.161-3.876-13.23-0.411-19.358
		c0.82-1.457,5.044-5.298,3.613-4.287c0.335-0.237,0.6-0.507,0.893-0.764c-4.326,18.311,0.656,38.405,18.836,47.848
		c8.744,4.542,17.827-6.51,10.64-13.79c-15.063-15.264,7.499-41.187,2.468-59.352c-3.319-11.982-15.686-20.421-26.811-24.385
		c-9.333-3.329-15.811,11.918-6.763,16.05c10.365,4.73,7.986,16.14,4.444,24.866c-1.184-5.15-6.515-9.193-12.569-5.636
		c-9.469,5.563-18.008,14.12-22.319,24.272c-8.048,18.955,5.425,33.479,12.977,49.883c-15.861,2.321-31.604,5.286-47.053,9.691
		c-10.471,2.986-23.17,6.812-30.86,15.023c-9.277,9.907-1.287,30.931,1.318,42.117c3.596,15.429,9.423,30.456,17.143,44.332
		c-15.071,6.253-30.985,15.018-37.923,29.472c-6.287,13.094,2.669,24.733,13.401,31.393c14.249,8.833,32.456,11.277,48.715,13.379
		c26.89,3.476,54.383,2.47,81.295-0.104c24.872-2.378,49.621-6.849,73.619-13.806c17.425-5.053,36.041-11.772,50.339-23.282
		c9.084-7.311,15.102-16.516,12.882-28.458C355.244,284.47,342.755,277.695,330.339,273.544z M306.071,247.173
		c1.201-7.383,1.966-14.84,2.365-22.346c2.369-1.371,4.821-2.218,7.829-2.189c6.396,1.879,11.292,6.315,6.042,12.812
		c-4.115,5.094-10.63,8.147-16.051,11.6C306.192,247.09,306.134,247.134,306.071,247.173z"/>
	<path style="fill:#FFFFFF;" d="M322.236,267.978c15.324-12.331,27.993-28.466,27.859-49.011
		c-0.173-26.785-27.92-36.182-50.549-32.38c-0.706-4.552-2.35-8.679-6.639-11.781c-6.057-4.376-14.013-5.771-21.221-6.927
		c-24.451-3.916-49.999-2.88-74.698-0.566c-2.553-11.613-9.188-20.786-15.527-31.709c-3.575-6.161-3.873-13.231-0.411-19.359
		c0.823-1.458,5.045-5.298,3.613-4.288c0.338-0.237,0.601-0.507,0.893-0.763c-4.327,18.311,0.655,38.406,18.836,47.848
		c8.745,4.542,17.828-6.51,10.639-13.79c-15.061-15.264,7.5-41.188,2.469-59.353c-3.317-11.982-15.686-20.42-26.81-24.385
		c-9.335-3.328-15.811,11.919-6.765,16.05c10.365,4.73,7.986,16.14,4.445,24.866c-1.186-5.151-6.516-9.194-12.572-5.637
		c-9.468,5.563-18.008,14.121-22.317,24.273c-8.048,18.955,5.423,33.479,12.977,49.882c-15.862,2.321-31.605,5.286-47.053,9.691
		c-10.472,2.987-23.169,6.813-30.859,15.023c-9.278,9.906-1.289,30.931,1.317,42.116c3.594,15.429,9.424,30.457,17.142,44.332
		c-15.07,6.253-30.984,15.018-37.923,29.472c-6.286,13.095,2.67,24.733,13.403,31.393c14.247,8.834,32.456,11.277,48.715,13.379
		c26.891,3.476,54.384,2.47,81.294-0.104c24.871-2.379,49.621-6.849,73.618-13.807c17.426-5.053,36.041-11.772,50.341-23.281
		c9.083-7.311,15.1-16.516,12.88-28.458C347.141,278.904,334.654,272.129,322.236,267.978z M297.969,241.607
		c1.2-7.383,1.966-14.839,2.365-22.345c2.368-1.371,4.819-2.218,7.828-2.189c6.395,1.879,11.292,6.314,6.042,12.811
		c-4.115,5.093-10.631,8.146-16.05,11.6C298.09,241.524,298.03,241.568,297.969,241.607z"/>
	<g>
		<g>
			<g>
				<path style="fill:#FFDA67;" d="M341.19,294.981c2.18,21.596-55.456,45.097-128.732,52.489
					c-73.276,7.394-134.439-4.124-136.62-25.72c-2.179-21.603,55.455-45.102,128.727-52.49
					C277.84,261.864,339.012,273.38,341.19,294.981z"/>
				<g>
					<path style="fill:#5C2849;" d="M339.934,294.981c1.118,14.503-20.252,23.79-30.764,28.497
						c-24.095,10.789-50.676,16.381-76.659,20.259c-29.733,4.438-60.151,6-90.145,3.701c-18.96-1.454-41.824-3.802-57.881-15.094
						c-4.647-3.268-8.379-8.259-7.185-14.186c1.291-6.403,7.321-11.314,12.323-14.899c17.981-12.888,41.112-19.13,62.33-24.132
						c29.83-7.033,60.637-10.398,91.259-10.823c24.275-0.336,49.614,0.967,72.909,8.351
						C324.615,279.345,338.625,284.509,339.934,294.981c0.198,1.586,2.713,1.604,2.513,0c-1.586-12.683-17.367-18.228-27.769-21.407
						c-22.857-6.986-47.744-8.007-71.466-7.783c-29.754,0.281-59.635,3.747-88.684,10.172c-21.572,4.77-44.003,11.185-62.917,22.956
						c-8.528,5.308-20.472,14.961-16.167,26.463c4.722,12.617,23.447,17.174,34.865,19.878c24.7,5.848,50.773,6.348,76.011,5.343
						c29.375-1.169,58.827-5.222,87.315-12.517c17.838-4.567,36.055-10.489,51.784-20.276c7.717-4.802,17.818-12.583,17.028-22.828
						C342.322,293.376,339.809,293.365,339.934,294.981z"/>
				</g>
			</g>
			<path style="fill:#43C1C3;" d="M102.185,333.864l-11.746-0.589c0,0,32.64,22.12,129.347,9.408
				C219.786,342.683,129.564,349.958,102.185,333.864z"/>
			<path style="fill:#43C1C3;" d="M82.798,308.355c0,0,8.672-13.923,48.315-25.514c0,0,15.882,39.362,78.444,39.989
				c0,0-26.014,3.116-47.637,1.675C132.605,322.548,96.54,330.72,82.798,308.355z"/>
			<path style="fill:#5C2849;" d="M205.092,278.574c-66.65,6.726-119.317,25.73-117.629,42.449
				c1.686,16.72,57.085,24.82,123.739,18.096c66.648-6.721,119.317-25.727,117.626-42.444
				C327.148,279.953,271.743,271.852,205.092,278.574z M210.195,336.533c-64.628,6.523-118.259-0.559-119.796-15.807
				c-1.538-15.25,49.6-32.895,114.224-39.414c64.621-6.52,120.124,0.364,121.66,15.617
				C327.824,312.179,274.815,330.013,210.195,336.533z"/>
			<g>
				<path style="fill:#FFDA67;" d="M288.436,199.504c0,0,25.6-16.196,45.974,4.439c20.373,20.63-9.888,52.552-19.117,59.139
					c-9.227,6.592-52.602,29.787-59.584,46.654l6.834-29.48c0,0,19.54-18.999,46.995-35.566
					c27.453-16.568,14.158-33.425-0.037-36.351c-10.574-2.176-25.765,9.243-30.178,25.328L288.436,199.504z"/>
				<g>
					<path style="fill:#5C2849;" d="M289.07,200.588c14.211-8.866,32.393-7.481,44.452,4.243
						c15.257,14.833,0.828,37.168-10.407,49.376c-9.154,9.946-21.614,15.885-32.844,23.13c-7.392,4.77-14.631,9.799-21.426,15.392
						c-5.469,4.501-11.308,9.764-14.22,16.374c0.765,0.322,1.53,0.645,2.296,0.968c1.213-5.233,2.426-10.467,3.64-15.7
						c0.789-3.402,1.577-6.804,2.366-10.206c0.227-0.981,0.455-1.962,0.683-2.944c0.256-1.107-0.338,0.078,0.023-0.269
						c14.53-13.938,31.124-25.582,48.17-36.191c7.192-4.477,14.761-11.335,14.972-20.412c0.149-6.403-4.748-11.612-9.932-14.608
						c-17.059-9.861-34.169,8.203-38.73,23.593c0.808,0.223,1.615,0.445,2.423,0.668c3.038-11.388,6.075-22.775,9.113-34.163
						c0.418-1.567-2.005-2.232-2.423-0.668c-3.038,11.388-6.075,22.775-9.113,34.163c-0.418,1.569,1.963,2.218,2.423,0.668
						c4.879-16.464,25.075-34.253,40.308-17.946c6.678,7.148,2.18,15.958-3.868,21.674c-4.64,4.385-10.582,7.349-15.906,10.799
						c-5.229,3.39-10.311,7.005-15.308,10.727c-6.663,4.962-13.112,10.221-19.33,15.729c-1.636,1.448-4.714,3.284-5.245,5.569
						c-2.229,9.617-4.458,19.233-6.688,28.85c-0.307,1.326,1.699,2.322,2.296,0.968c3.571-8.103,11.468-14.17,18.3-19.425
						c8.092-6.223,16.737-11.72,25.403-17.099c5.515-3.423,11.47-6.514,16.579-10.543c6.035-4.76,11.166-10.693,15.619-16.927
						c5.218-7.307,9.317-15.799,9.86-24.87c0.58-9.7-5.063-17.344-12.486-22.92c-12.015-9.025-29.856-7.91-42.268-0.167
						C286.431,199.274,287.691,201.449,289.07,200.588z"/>
				</g>
			</g>
			<path style="fill:#46C1C3;stroke:#5C2849;stroke-width:0.8374;stroke-miterlimit:10;" d="M287.091,186.335
				c0.953,9.44-40.408,21.342-92.382,26.585c-51.981,5.244-94.884,1.84-95.834-7.597c-0.953-9.441,40.407-21.344,92.383-26.586
				C243.234,173.491,286.14,176.893,287.091,186.335z"/>
			<path style="fill:#A73E5C;" d="M286.755,193.56c0.955,9.442-40.41,21.343-92.386,26.588c-51.973,5.245-94.878,1.84-95.83-7.598
				c-0.953-9.441,40.407-21.346,92.383-26.59C242.898,180.719,285.806,184.119,286.755,193.56z"/>
			<g>
				<path style="fill:#FFDA67;" d="M290.579,185.822c7.867,77.956-22.434,137.33-85.176,143.664
					c-65.546,6.613-104.941-52.188-112.157-123.754c0,0,10.6,17.327,99.632,8.345C279.451,205.339,290.579,185.822,290.579,185.822z
					"/>
				<g>
					<path style="fill:#5C2849;" d="M289.323,185.822c4.14,42.321-1.395,91.793-34.993,121.764
						c-31.343,27.959-81.499,27.854-113.396,1.224c-29.783-24.865-42.552-65.781-46.432-103.078c-0.78,0.211-1.56,0.423-2.34,0.634
						c1.507,2.412,4.805,3.878,7.271,4.955c10.165,4.438,21.83,5.501,32.767,6.177c25.656,1.587,51.693-0.776,77.121-4.062
						c19.957-2.579,40.174-6.112,59.12-13.095c7.188-2.649,19.011-6.628,23.224-13.885c0.815-1.403-1.356-2.668-2.169-1.268
						c-1.444,2.487-5.571,4.984-8.335,6.596c-12.103,7.057-26.298,10.654-39.848,13.662c-27.016,5.996-54.995,8.797-82.622,9.762
						c-16.612,0.58-33.91,0.539-50.145-3.503c-4.134-1.028-12.113-3.248-14.214-6.607c-0.611-0.979-2.478-0.682-2.34,0.634
						c4.288,41.219,19.344,86.141,54.88,110.732c31.666,21.913,76.996,18.879,106.719-4.972
						c36.47-29.263,42.492-82.256,38.245-125.67C291.679,184.225,289.165,184.209,289.323,185.822z"/>
				</g>
			</g>
			<g>
				<path style="fill:#FFDA67;" d="M189.997,176.767c-54.497,5.497-97.813,18.463-96.751,28.964
					c1.057,10.495,46.095,14.553,100.584,9.054c54.492-5.497,97.812-18.466,96.749-28.963
					C289.521,175.325,244.488,171.268,189.997,176.767z M194.369,210.493c-50.087,5.057-91.364,2.52-92.188-5.665
					c-0.825-8.185,39.113-18.914,89.198-23.969c50.095-5.053,91.367-2.515,92.193,5.665
					C284.396,194.711,244.461,205.442,194.369,210.493z"/>
				<g>
					<path style="fill:#5C2849;" d="M189.997,175.511c-25.914,2.662-52.383,6.483-77.075,15.094
						c-4.88,1.702-26.905,9.214-19.677,18.163c3.413,4.227,10.078,5.544,15.067,6.614c10.071,2.157,20.522,2.702,30.788,2.999
						c29.338,0.848,58.951-1.927,87.863-6.788c5.458-0.918,75.793-13.73,63.617-28.81c-2.513-3.111-6.85-4.453-10.538-5.52
						c-6.803-1.971-13.996-2.728-21.028-3.337C236.104,171.94,212.831,173.249,189.997,175.511c-1.597,0.158-1.612,2.672,0,2.512
						c26.547-2.629,54.244-4.396,80.733-0.19c5.349,0.849,14.701,1.881,18.115,6.818c3.004,4.342-6.844,8.858-9.432,10.128
						c-9.236,4.535-19.494,7.179-29.445,9.596c-14.125,3.43-28.514,5.792-42.921,7.649c-27.951,3.604-56.708,5.484-84.834,2.855
						c-8.234-0.77-18.694-1.546-25.732-6.448c-6.405-4.462,4.628-10.037,7.932-11.659c10.57-5.19,22.436-8.027,33.854-10.619
						c17.028-3.865,34.371-6.347,51.73-8.13C191.592,177.859,191.608,175.345,189.997,175.511z"/>
					<path style="fill:#5C2849;" d="M194.369,209.237c-25.646,2.544-52.789,4.844-78.401,0.664
						c-2.13-0.348-14.563-2.187-12.168-6.395c1.179-2.071,4.063-3.329,6.085-4.342c4.048-2.028,8.426-3.424,12.743-4.747
						c27.034-8.287,55.958-11.534,84.043-13.632c13.888-1.038,27.839-1.515,41.764-1.136c9.308,0.253,19.003,0.688,27.997,3.301
						c3.305,0.96,8.023,2.895,4.199,6.328c-4.585,4.116-11.786,5.908-17.507,7.662C240.917,203.746,217.4,206.874,194.369,209.237
						c-1.595,0.163-1.611,2.677,0,2.512c25.339-2.599,51.617-5.892,75.738-14.468c5.404-1.922,22.519-9.666,10.374-15.493
						c-6.428-3.083-14.377-3.524-21.359-4.094c-12.604-1.029-25.32-0.806-37.942-0.275c-28.989,1.221-58.245,4.636-86.529,11.208
						c-10.033,2.332-22.214,4.753-30.636,11.136c-4.413,3.345-3.519,7.512,1.256,9.803c9.414,4.519,21.889,4.324,32.045,4.654
						c19.025,0.617,38.128-0.593,57.052-2.471C195.966,211.59,195.981,209.077,194.369,209.237z"/>
				</g>
			</g>
			<g>
				<g>
					<path style="fill:#EC4963;" d="M188.319,69.982c0,0,29.868,10.232,19.576,34.37c-10.29,24.139-5.553,41.425,0.89,47.109
						c0,0-27.051-13.511-12.025-46.602C208.635,78.71,188.319,69.982,188.319,69.982z"/>
					<g>
						<path style="fill:#5C2849;" d="M187.985,71.193c11.833,4.118,23.029,14.529,20.278,28.028
							c-1.28,6.282-4.551,12.129-6.057,18.42c-1.248,5.21-1.73,10.615-1.487,15.961c0.299,6.606,2.184,14.085,7.178,18.747
							c0.507-0.657,1.015-1.316,1.523-1.973c-15.232-7.727-18.439-25.734-13.267-40.727c3.66-10.608,8.51-20.405,2.755-31.298
							c-2.076-3.929-5.848-7.647-9.955-9.455c-1.468-0.645-2.748,1.519-1.268,2.17c4.79,2.108,8.519,6.574,10.337,11.386
							c4.814,12.743-5.372,25.116-6.867,37.554c-1.538,12.787,5.35,26.631,16.996,32.539c1.229,0.624,2.609-0.958,1.522-1.973
							c-7.169-6.693-7.165-18.689-5.924-27.626c1.516-10.911,8.925-20.966,7.208-32.158c-1.646-10.733-12.688-18.672-22.305-22.018
							C187.119,68.237,186.465,70.664,187.985,71.193z"/>
					</g>
				</g>
				<g>
					<path style="fill:#EC4963;" d="M180.194,104.375c0,0-33.55,19.233-15.292,45.02c18.262,25.79,16.744,47.199,10.346,55.414
						c0,0,29.35-22.386,3.206-57.517C157.8,119.534,180.194,104.375,180.194,104.375z"/>
					<g>
						<path style="fill:#5C2849;" d="M179.56,103.29c-11.604,6.719-22.646,19.274-21.17,33.453
							c0.583,5.593,3.404,10.372,6.544,14.892c4.711,6.782,8.465,14.232,10.978,22.097c2.983,9.338,4.5,22.017-1.748,30.443
							c-0.731,0.986,0.733,2.479,1.719,1.719c12.208-9.425,16.999-25.836,13.218-40.501c-3.953-15.33-19.086-25.849-18.054-42.61
							c0.402-6.528,4.348-13.581,9.782-17.322C182.152,104.548,180.898,102.37,179.56,103.29c-4.066,2.8-7.394,7.246-9.192,11.8
							c-4.896,12.397,0.795,24.277,8.104,34.355c8.557,11.798,12.564,26.651,6.551,40.423c-2.204,5.047-6.669,10.97-10.408,13.855
							c0.573,0.573,1.146,1.146,1.719,1.719c4.79-6.46,5.066-15.302,4.092-22.962c-0.734-5.768-2.482-11.472-4.82-16.786
							c-3.238-7.357-7.916-13.585-11.853-20.516c-8.839-15.566,3.7-31.975,17.076-39.719
							C182.229,104.649,180.965,102.478,179.56,103.29z"/>
					</g>
				</g>
			</g>
			<path style="fill:#43C1C3;" d="M261.469,203.397c0,0,16.996,84.238-40.158,121.338c0,0,54.383-9.733,65.583-81.855
				c0,0,5.345-19.657,2.441-51.946C289.335,190.934,281.523,197.746,261.469,203.397z"/>
		</g>
	</g>
</g>
</svg>
